<?xml version="1.0" encoding="UTF-8"?>
<?xml-stylesheet type="text/css" href="main.css" ?> 
 

<svg xmlns="http://www.w3.org/2000/svg" xmlns:xlink="http://www.w3.org/1999/xlink">
        
<!--        S Y M B O L      O N E          -->
        <symbol id="runeone"     viewBox="0 0 130.60005 132.01039">
       <g id="layer1"
          transform="matrix(1.1007675,0,0,1.1007675,-34.203341,-75.6201)">
    <path
       
       d="M 106.7207,73.183594 35.580078,145.0918 37.121094,146.61328 108.26172,74.707031 Z"
       id="path4514" />
    <path
       
       d="M 102.21289,68.189453 31.072266,140.0957 32.613281,141.61914 103.75195,69.712891 Z"
       id="path4516" />
    <g
       id="g855"
       style="stroke:none">
      <path
         id="rect3701"
         d="m 57.152344,95.162109 v 1.083985 80.005856 H 135.63281 V 95.162109 Z m 2.166015,2.166016 H 133.4668 V 174.08594 H 59.318359 Z"
         />
      <path
         id="path4518"
         d="m 134.21484,135.98828 -38.392574,38.4707 1.226562,1.22461 38.392582,-38.4707 z"
          />
    </g>
    <path
       
       d="m 148.49023,148.42188 -38.39257,38.4707 1.22656,1.22265 38.39258,-38.4707 z"
       id="path4520" />
  </g>
        </symbol>
       
        
            
<!--      S Y M B O L    T W O       -->
        <symbol id="runetwo"     viewBox="0 0 131.91394 123.06594">
            <g
 transform="matrix(0.71896126,0,0,0.71896126,-13.319038,-17.952968)"
     id="layer1">
    <path
       
       d="m 20.138672,164.6543 -0.02148,5 179.162108,0.75586 0.0195,-5 z"
       id="path5113" />
    <g
       id="g885">
      <path
         id="path5117"
         d="m 24.164062,152.10156 -1.892578,1.07032 19.587891,34.60351 1.892578,-1.07031 z"
         />
      <path
         id="path5119"
         d="m 24.753906,133.57812 -2.695312,1.53126 34.71289,61.0332 2.695313,-1.53125 z"
          />
    </g>
    <path
       
       d="m 91.287109,57.958984 -0.04492,2.427735 41.716791,0.765625 0.0449,-2.427735 z"
       id="path5115" />
    <g
       id="g881">
      <path
         id="path4564"
         d="m 20.673828,176.94922 -0.02148,5 179.160152,0.75586 0.0215,-5 z"
          />
      <path
         id="path5109"
         d="M 111.44727,24.970703 18.525391,178.15234 22.800781,180.74609 115.72266,27.564453 Z"
         />
      <path
         id="path5111"
         d="m 115.76562,25.046875 -4.36132,2.443359 86.23828,153.937496 4.36133,-2.44335 z"
         />
      <path
         id="path5121"
         d="m 112.06445,32.794922 -1.25586,0.699219 82.41407,147.796879 1.2539,-0.70118 z"
          />
    </g>
  </g>
        </symbol>
       

       <!--            S Y M B O L      T H R E E-->
        <symbol id="runethree"    viewBox="0 0 124.30975 132.10944">

            <g id="layer1"
                    transform="matrix(1.0757655,0,0,1.0757655,-33.478999,-113.86305)"
>
            <path id="path1886"
               d="M 89.126953,105.84375 88.255859,107.35742 31.121094,206.5 146.67578,206.95898 Z m -0.01172,4.02539 54.113286,95.07422 -108.652348,-0.42969 z"
                />
            <g id="g856">
              <path
                 d="m 105.26562,119.94141 -54.679682,98.07226 1.134765,0.63281 54.679687,-98.07226 z"
                 id="path1890" />

              <path
                 d="m 62.710938,204.98633 -8.041016,14.69531 1.140625,0.62305 8.041015,-14.69336 z"
                 id="path1892" />

              <path
                 d="m 67.416016,205.76953 -8.736328,15.42578 1.130859,0.64063 8.738281,-15.42578 z"
                 id="path1894" />
            </g>
            <g id="g2454">

              <path
                 d="m 86.324219,116.09375 c -9.454109,0.14602 -18.871383,2.86073 -27.246094,8.12695 -16.749422,10.53245 -26.736102,29.62764 -26.15625,49.9668 l 1.451172,-0.041 c -0.565562,-19.83794 9.179018,-38.44579 25.478515,-48.69531 16.299498,-10.24952 36.619454,-10.56346 53.203128,-0.82226 16.58367,9.74119 26.85351,28.03806 26.85351,47.88476 h 1.45508 c 0,-20.34809 -10.52935,-39.12772 -27.57226,-49.13867 -8.52146,-5.00548 -18.012693,-7.42727 -27.466801,-7.28125 z"
                 id="path2438" />

              <path
                 d="M 86.324219,228.64258 C 76.87011,228.49656 67.452836,225.78185 59.078125,220.51562 42.328703,209.98318 32.342023,190.88799 32.921875,170.54883 l 1.451172,0.041 c -0.565562,19.83795 9.179018,38.44579 25.478515,48.69532 16.299498,10.24952 36.619454,10.56345 53.203128,0.82226 16.58367,-9.74119 26.85351,-28.03806 26.85351,-47.88476 h 1.45508 c 0,20.34809 -10.52935,39.12772 -27.57226,49.13867 -8.52146,5.00547 -18.012693,7.42726 -27.466801,7.28125 z"
                 id="path2440" />
            </g>
          </g>

        </symbol>
<!--            S Y M B O L         F O U R-->
            
        <symbol id="runefour"      viewBox="0 0 84.546997 132.22511"
>
            <g id="layer1"
                    transform="matrix(1.749154,0,0,1.749154,-140.64633,-165.69134)"
>

            <path
               id="path875"
               d="m 106.57617,94.726562 -26.167967,47.156248 0.109375,0.31641 9.707031,28.12109 31.042971,-52.99219 z m 0.10156,2.910157 12.82618,19.732421 -28.925785,49.37695 -8.533203,-24.7207 z"
               />
            <path
               id="path877"
               d="m 102.57617,94.726562 -14.689451,22.601558 31.041011,52.99219 9.81641,-28.4375 -0.16211,-0.29297 z m -0.10156,2.908204 24.63281,44.390624 -8.5332,24.72266 -28.925782,-49.37891 z"
                />
          </g>
        </symbol>
            
<!--            S Y M B O L         F I V E -->
        <symbol id="runefive"     viewBox="0 0 109.90653 132.07079"
>

        <g id="layer1"
                transform="matrix(2.0833821,0,0,2.0089794,-151.02487,-228.16041)"
>
            <path id="path25"
               d="m 97.056641,121.94727 0.01563,2.375 0.152343,22.46289 -24.734375,0.18164 26.953125,32.34375 -0.207031,-30.54102 25.460942,-0.18945 z m 2.03125,4.73437 20.689449,19.93555 -20.552731,0.15234 z m -1.84961,22.10156 0.167969,24.95899 -20.671875,-24.80664 z"
              />

            <path id="path27"
               d="m 124.0918,113.57031 -49.324222,30.39649 24.384766,-0.17969 -23.841797,28.92578 1.070312,-0.008 24.222661,-0.17774 24.64062,-29.93359 -23.95898,0.17773 23.45507,-28.45703 z m -2.03907,2.43164 -22.070308,26.77735 -21.644531,0.16015 z m 1.0586,27.60743 -22.98438,27.91992 -22.683591,0.16797 23.011721,-27.91993 z"
               />
          </g>

        </symbol>
            
        </svg>